HIERARCHY
ROOT Bip01_Pelvis
{
	OFFSET 0.000000 1.328589 0.000000
	CHANNELS 6 Xposition Yposition Zposition Zrotation Yrotation Xrotation 
	JOINT BN_Tail_01
	{
		OFFSET 0.002829 -0.097032 -0.128569
		CHANNELS 3 Zrotation Yrotation Xrotation
		End Site #name: BN_Tail_R_01
		{
			OFFSET -0.041997 -0.163561 -0.155552
		}
		End Site #name: BN_Tail_L_01
		{
			OFFSET 0.048754 -0.165327 -0.151665
		}
	}
	JOINT Bip01_Spine
	{
		OFFSET -0.002379 -0.010005 0.108133
		CHANNELS 3 Zrotation Yrotation Xrotation
		JOINT BN_Forearm_L_01
		{
			OFFSET 0.162717 -0.064196 0.015185
			CHANNELS 3 Zrotation Yrotation Xrotation
			JOINT BN_Forearm_L_02
			{
				OFFSET 0.247226 0.035014 -0.119087
				CHANNELS 3 Zrotation Yrotation Xrotation
				JOINT BN_Forearm_L_03
				{
					OFFSET 0.408857 0.044197 0.050621
					CHANNELS 3 Zrotation Yrotation Xrotation
					End Site #name: BN_Forearm_L_04
					{
						OFFSET 0.280290 -0.019311 -0.155437
					}
				}
			}
		}
		JOINT BN_Forearm_R_01
		{
			OFFSET -0.159348 -0.066581 0.031681
			CHANNELS 3 Zrotation Yrotation Xrotation
			JOINT BN_Forearm_R_02
			{
				OFFSET -0.241748 0.035016 -0.129845
				CHANNELS 3 Zrotation Yrotation Xrotation
				JOINT BN_Forearm_R_03
				{
					OFFSET -0.410688 0.044199 0.032589
					CHANNELS 3 Zrotation Yrotation Xrotation
					End Site #name: BN_Forearm_R_04
					{
						OFFSET -0.273182 -0.019309 -0.167614
					}
				}
			}
		}
		JOINT Bone02
		{
			OFFSET 0.003666 0.072313 0.082027
			CHANNELS 3 Zrotation Yrotation Xrotation
			End Site #name: Bone03
			{
				OFFSET 0.003844 0.119844 -0.174713
			}
		}
		JOINT Bip01_R_Thigh
		{
			OFFSET -0.049216 -0.004125 -0.109704
			CHANNELS 3 Zrotation Yrotation Xrotation
			JOINT Bip01_R_Calf
			{
				OFFSET -0.032083 -0.318469 0.052172
				CHANNELS 3 Zrotation Yrotation Xrotation
				JOINT Bip01_R_HorseLink
				{
					OFFSET 0.025800 -0.400226 -0.066351
					CHANNELS 3 Zrotation Yrotation Xrotation
					JOINT Bip01_R_Foot
					{
						OFFSET -0.032189 -0.553674 0.043643
						CHANNELS 3 Zrotation Yrotation Xrotation
						End Site #name: Bip01_R_Toe2
						{
							OFFSET 0.010358 -0.031171 0.019449
						}
						End Site #name: Bip01_R_Toe1
						{
							OFFSET -0.019715 -0.042089 0.040053
						}
						End Site #name: Bip01_R_Toe0
						{
							OFFSET -0.053089 -0.031922 0.016609
						}
					}
				}
			}
		}
		JOINT Bip01_L_Thigh
		{
			OFFSET 0.088065 -0.001276 -0.103967
			CHANNELS 3 Zrotation Yrotation Xrotation
			JOINT Bip01_L_Calf
			{
				OFFSET 0.029759 -0.318468 0.053536
				CHANNELS 3 Zrotation Yrotation Xrotation
				JOINT Bip01_L_HorseLink
				{
					OFFSET -0.022854 -0.400227 -0.067417
					CHANNELS 3 Zrotation Yrotation Xrotation
					JOINT Bip01_L_Foot
					{
						OFFSET 0.030243 -0.553674 0.045022
						CHANNELS 3 Zrotation Yrotation Xrotation
						JOINT Bip01_L_Toe2
						{
							OFFSET -0.011203 -0.031171 0.018975
							CHANNELS 3 Zrotation Yrotation Xrotation
							End Site #name: Bip01_L_Toe21
							{
								OFFSET -0.058370 -0.013373 0.073488
							}
						}
						JOINT Bip01_L_Toe1
						{
							OFFSET 0.017935 -0.042089 0.040882
							CHANNELS 3 Zrotation Yrotation Xrotation
							End Site #name: Bip01_L_Toe11
							{
								OFFSET -0.002748 -0.001969 0.124903
							}
						}
						JOINT Bip01_L_Toe0
						{
							OFFSET 0.052307 -0.031922 0.018928
							CHANNELS 3 Zrotation Yrotation Xrotation
							End Site #name: Bip01_L_Toe01
							{
								OFFSET 0.050388 -0.011389 0.089360
							}
						}
					}
				}
			}
		}
		JOINT Bip01_Spine1
		{
			OFFSET 0.005545 0.000724 0.108375
			CHANNELS 3 Zrotation Yrotation Xrotation
			JOINT Bip01_Neck
			{
				OFFSET -0.001909 -0.096171 0.086759
				CHANNELS 3 Zrotation Yrotation Xrotation
				JOINT Bip01_Neck1
				{
					OFFSET -0.002353 0.134438 0.106958
					CHANNELS 3 Zrotation Yrotation Xrotation
					JOINT Bip01_Neck2
					{
						OFFSET -0.000566 0.165260 0.025753
						CHANNELS 3 Zrotation Yrotation Xrotation
						JOINT Bip01_Neck3
						{
							OFFSET 0.000683 0.171956 -0.031041
							CHANNELS 3 Zrotation Yrotation Xrotation
							JOINT Bip01_Neck4
							{
								OFFSET 0.000103 0.187044 -0.004648
								CHANNELS 3 Zrotation Yrotation Xrotation
								JOINT Bip01_Head
								{
									OFFSET -0.001187 0.171665 0.053953
									CHANNELS 3 Zrotation Yrotation Xrotation
									End Site #name: BN_Mouth_01
									{
										OFFSET -0.002942 0.004036 0.133719
									}
								}
							}
						}
					}
				}
			}
		}
	}
}
MOTION
Frames: 12
Frame Time: 0.041667
0.001388 1.268505 0.000073 -10.449862 -8.474716 12.708687 10.096453 8.419692 -9.331668 8.435814 7.823802 -5.127152 5.496328 73.459459 -91.638177 -167.685470 -29.382355 -149.596613 -158.421374 -5.396940 -111.801891 2.266456 -77.420649 -119.820062 164.119453 20.650786 137.236078 -170.167108 1.154223 131.296326 130.360930 -16.663789 -45.275616 12.999000 -17.586445 -17.359092 -16.635093 3.589274 17.254953 13.662184 2.699262 -21.987332 -3.400274 17.669505 0.499281 4.324057 -16.930530 -9.485693 -7.025991 2.835385 19.326029 7.290946 1.717778 -20.918372 -1.740220 5.978608 4.108055 30.322335 8.238030 -19.649782 1.273512 8.478507 0.160312 -23.021286 8.139709 -16.314924 -53.798357 57.812648 -23.603840 -131.146957 50.011692 115.833597 1.099509 9.412954 112.693356 -3.849561 2.765626 37.723744 3.756231 2.095061 -27.318746 7.887649 6.959089 -60.766344 -26.097466 -2.274961 -167.165347 
0.001383 1.264709 0.000137 -10.535233 -8.221908 14.088263 10.108284 8.416488 -9.072622 8.440535 7.823547 -5.217001 3.620068 75.685534 -93.298203 -167.704026 -29.342324 -149.589015 -158.335816 -5.235162 -111.753023 1.810917 -77.235874 -118.538068 164.119454 20.650787 137.236078 -170.167108 1.154201 131.296409 130.380490 -16.769678 -45.368211 13.420820 -17.208413 -19.158470 -16.839998 3.785949 18.515357 13.836414 2.863058 -23.129318 -3.361960 17.656573 0.840013 5.197030 -16.811218 -12.182883 -7.721667 3.112183 21.156724 7.444560 1.766714 -21.330534 -1.668149 5.987531 3.848611 30.322325 8.238031 -19.649782 1.273511 8.478507 0.160312 -23.021286 8.139709 -16.314924 -53.785788 57.827234 -23.585140 -131.520697 49.917225 113.823790 0.477339 8.212797 111.409089 -4.783085 3.305474 38.475063 3.060023 1.821957 -24.684861 6.706098 5.997816 -60.048815 -25.503059 -2.421645 -168.691428 
0.001371 1.260601 0.000282 -10.624282 -7.933641 15.646987 10.138160 8.408161 -8.417275 8.451142 7.823015 -5.418884 0.364878 77.731552 -95.417049 -167.744218 -29.235941 -149.571992 -158.135245 -4.849302 -111.634248 0.938233 -76.841870 -115.937551 164.119465 20.650778 137.235983 -170.167098 1.154176 131.296517 130.431554 -17.041264 -45.606237 13.824530 -16.817776 -20.947338 -17.036525 3.982947 19.749762 14.023865 3.046816 -24.382499 -3.315507 17.641515 1.249554 6.088097 -16.648806 -14.984571 -8.425619 3.418879 23.030755 7.597096 1.816518 -21.740642 -1.591249 5.997110 3.572426 30.322335 8.238030 -19.649782 1.273512 8.478507 0.160312 -23.021286 8.139709 -16.314924 -53.757238 57.860022 -23.542788 -131.904472 49.809664 111.716027 -0.165867 6.895928 110.102737 -5.798235 3.912338 39.382834 2.289330 1.562016 -21.818630 5.420361 4.971373 -59.430248 -24.869486 -2.723240 -170.682474 
0.001357 1.256328 0.000451 -10.709218 -7.628304 17.283042 10.180927 8.395578 -7.474866 8.463511 7.822439 -5.654251 -3.971915 79.775542 -98.659373 -167.786109 -29.068310 -149.552665 -157.880760 -4.344233 -111.473838 0.179621 -76.446636 -113.478933 164.119447 20.650783 137.236076 -170.167105 1.154204 131.296400 130.508899 -17.440119 -45.957230 14.215451 -16.411963 -22.735020 -17.224384 4.179383 20.955020 14.212356 3.239885 -25.670054 -3.266349 17.623972 1.685276 6.981259 -16.442993 -17.827976 -9.113745 3.745583 24.886202 7.740002 1.864283 -22.125655 -1.510956 6.007008 3.285958 30.322335 8.238030 -19.649782 1.273512 8.478507 0.160312 -23.021286 8.139709 -16.314924 -53.724015 57.898235 -23.493494 -132.292722 49.689254 109.544530 -0.802155 5.510500 108.778675 -6.847728 4.562860 40.341610 1.473920 1.332464 -18.830598 4.074540 3.917128 -58.806537 -24.231487 -3.129696 -172.796794 
0.001346 1.252220 0.000580 -10.781231 -7.338039 18.825656 10.230499 8.380048 -6.376547 8.472999 7.822028 -5.834750 -9.234973 81.907753 -103.898849 -167.808112 -28.848276 -149.538698 -157.642036 -3.838614 -111.305543 -0.080969 -76.296349 -112.579587 164.119452 20.650786 137.236078 -170.167091 1.154206 131.296418 130.605479 -17.919027 -46.380973 14.586145 -16.004346 -24.464088 -17.397440 4.367867 22.089305 14.383619 3.423073 -26.866351 -3.221840 17.605135 2.086343 7.823070 -16.206691 -20.538779 -9.740199 4.067119 26.597984 7.861682 1.905776 -22.453975 -1.432456 6.016570 3.007942 30.322335 8.238030 -19.649782 1.273512 8.478507 0.160312 -23.021286 8.139709 -16.314924 -53.698441 57.927500 -23.455593 -132.664072 49.562532 107.435953 -1.380632 4.165776 107.494163 -7.842763 5.199999 41.207503 0.681353 1.152307 -15.960056 2.767516 2.920486 -58.105787 -23.623603 -3.539201 -174.619838 
0.001344 1.248684 0.000608 -10.833794 -7.101320 20.075554 10.279311 8.363736 -5.288141 8.475011 7.821951 -5.873034 -16.046548 84.152242 -112.687659 -167.789835 -28.593204 -149.537440 -157.494256 -3.461814 -111.169003 0.498688 -76.619853 -114.539729 164.119447 20.650770 137.235977 -170.167106 1.154196 131.296430 130.707711 -18.420353 -46.815436 14.922252 -15.620132 -26.049223 -17.548837 4.539050 23.102037 14.518769 3.573173 -27.829564 -3.189849 17.587543 2.385094 8.552971 -15.967361 -22.895386 -10.256293 4.350008 28.026146 7.951982 1.937079 -22.698025 -1.362946 6.024948 2.763390 30.322335 8.238030 -19.649782 1.273512 8.478507 0.160312 -23.021286 8.139709 -16.314924 -53.693004 57.933714 -23.447545 -132.991026 49.441179 105.561618 -1.847024 3.002369 106.330759 -8.678982 5.746370 41.827182 -0.001535 1.030182 -13.506045 1.625435 2.087511 -57.286611 -23.073028 -3.804939 -175.741883 
0.001355 1.245925 0.000472 -10.865904 -6.943007 20.907785 10.322857 8.348322 -4.311090 8.465080 7.822365 -5.684089 -30.756973 86.735551 -132.736174 -167.498861 -28.131953 -149.606057 -158.307999 -4.015989 -111.030813 2.976804 -77.800451 -121.769980 164.011318 20.408130 137.242517 -170.107676 2.027111 131.909530 130.815031 -18.893800 -47.251767 15.232908 -15.260593 -27.502120 -17.681990 4.694731 24.009608 14.608445 3.675638 -28.478814 -3.176119 17.573251 2.532128 9.157910 -15.743613 -24.824201 -10.649163 4.576654 29.125098 8.007955 1.956700 -22.849463 -1.305532 6.031816 2.562824 30.322335 8.238030 -19.649782 1.273512 8.478507 0.160312 -23.021286 8.139709 -16.314924 -53.719796 57.903060 -23.487253 -133.267294 49.331284 103.980291 -2.181996 2.094367 105.297682 -9.304954 6.151959 42.087125 -0.527512 0.956248 -11.622111 0.708229 1.472889 -56.265310 -22.565108 -3.774027 -175.838424 
0.001381 1.244298 0.000104 -10.874381 -6.899104 21.138089 10.354929 8.336427 -3.587335 8.437636 7.823649 -5.161741 -161.384572 85.841849 74.495822 -159.968116 -19.445534 -149.771327 170.858906 -32.319174 -99.210088 36.987025 -82.911767 -177.334540 160.719321 9.797996 139.250166 -165.433320 33.388436 158.887950 130.908819 -19.305719 -47.623227 15.519669 -14.938617 -28.797073 -17.795108 4.831033 24.794254 14.635208 3.706671 -28.674183 -3.189419 17.565834 2.445972 9.598691 -15.561491 -26.167241 -10.885421 4.717826 29.791308 8.022528 1.961830 -22.888882 -1.266127 6.036557 2.426046 30.322335 8.238030 -19.649782 1.273512 8.478507 0.160312 -23.021286 8.139709 -16.314924 -53.792933 57.818967 -23.595776 -133.475150 49.244451 102.827012 -2.347246 1.570679 104.454335 -9.629914 6.340386 41.834256 -0.818680 0.922426 -10.575187 0.129786 1.167909 -54.976934 -22.107157 -3.274768 -174.491368 
0.000911 1.245665 -0.000925 -10.827659 -7.130272 19.923051 10.375368 8.328620 -3.124484 8.300082 7.834136 -2.539390 -174.621260 85.716956 27.620660 -153.795407 -2.119025 -143.981970 130.823095 -60.158592 -71.358945 47.549026 -77.096795 138.945087 160.475162 -8.192682 147.210964 -156.400008 65.230850 -173.153900 130.993340 -19.688429 -47.951952 16.366796 -14.165800 -32.229758 -17.971879 5.051824 26.046852 14.319669 3.353764 -26.416514 -3.420955 17.682294 -0.111728 10.149450 -15.287274 -27.551942 -10.767812 4.647103 29.459212 7.891045 1.915909 -22.533304 -1.272937 6.036041 2.358431 30.322325 8.238031 -19.649782 1.273512 8.478507 0.160312 -23.021286 8.139709 -16.314924 -54.076709 57.486707 -24.019229 -133.555017 49.217440 103.002876 -1.985188 2.473862 104.865911 -8.947199 5.809318 39.802419 -0.327116 0.973590 -12.398623 0.763906 1.857199 -52.817209 -21.914572 -1.384504 -167.871499 
-0.000054 1.252320 -0.002720 -10.695561 -7.679792 17.008165 10.390604 8.322670 -2.778359 8.109561 7.859031 1.113885 75.962314 79.501730 -126.437591 -151.738162 26.065708 -133.972791 -120.869841 -80.037470 155.436949 5.657696 -64.569543 135.344628 167.592243 -34.464503 157.118526 77.193013 69.281956 47.600304 131.098486 -20.098213 -48.344197 17.238803 -13.450654 -35.551289 -17.977595 5.059130 26.087929 13.490561 2.544122 -20.882143 -3.888905 17.882504 -5.040095 10.230368 -15.217347 -27.147625 -10.011890 4.213979 27.347725 7.477131 1.777249 -21.418044 -1.321793 6.030670 2.367373 30.322335 8.238030 -19.649782 1.273511 8.478507 0.160312 -23.021286 8.139709 -16.314924 -54.580404 56.872656 -24.780521 -133.397335 49.294070 104.833049 -0.976957 4.905236 106.141791 -7.014769 4.537031 35.754889 1.075203 1.218851 -17.504441 2.865968 3.590642 -49.618240 -22.293491 1.239121 -155.644422 
-0.000354 1.266344 -0.004549 -10.508026 -8.304720 13.637712 10.401446 8.318368 -2.531462 8.150469 7.852462 0.327093 -68.365661 58.873558 170.370410 -161.403241 39.399363 -133.760060 167.921551 -33.614807 -118.553939 66.264006 -61.850965 165.448103 -177.421432 -43.280900 155.438672 -162.882880 47.634280 145.043210 131.208006 -20.534215 -48.744501 16.220356 -14.794425 -30.469169 -17.357691 4.323910 21.826630 12.653574 1.866504 -15.730863 -4.144939 17.900182 -7.159499 8.003554 -16.137831 -19.858452 -8.174532 3.306351 22.359672 6.620935 1.518405 -19.129754 -1.353112 6.026954 2.488327 30.322335 8.238030 -19.649782 1.273511 8.478507 0.160312 -23.021282 8.139667 -16.315017 -55.119284 56.178347 -25.609881 -132.911650 49.478763 107.072892 -0.040816 6.932117 105.260995 -4.982332 3.395397 32.010388 2.485192 1.613476 -22.387072 4.972247 5.140806 -46.529571 -23.165251 2.593496 -145.931693 
0.001123 1.294886 -0.005647 -10.345744 -8.758370 11.145297 10.408458 8.315555 -2.371524 8.408533 7.825383 -4.607683 42.846005 44.314187 -137.480172 -71.850268 58.618821 -61.631095 117.890376 -27.362391 -11.498149 -19.742090 -34.875855 -179.061268 59.962365 -73.349369 -88.017480 -156.223876 31.206175 -122.538506 131.315588 -20.947361 -49.127803 12.229504 -18.184046 -13.193383 -15.028123 2.304469 8.098440 12.262304 1.589687 -13.435995 -3.765086 17.541012 -1.535468 2.379844 -17.185260 -4.156158 -3.224166 1.749631 9.600472 4.478875 1.029259 -13.492501 -1.310828 6.030621 2.744508 30.322335 8.238030 -19.649782 1.273512 8.478507 0.160312 -23.021286 8.139709 -16.314924 -55.757937 55.299829 -26.615158 -131.927414 49.803414 109.466112 0.320718 7.571731 98.014824 -3.323295 2.578664 29.564473 3.615067 2.047164 -25.732619 6.460106 6.144696 -44.130216 -23.639614 4.204917 -137.278169 
